<svg width="163" height="163" viewBox="0 0 163 163" fill="none" xmlns="http://www.w3.org/2000/svg">
<path d="M0 0H120.581C144.008 0 163 18.9916 163 42.4188V163H42.4188C18.9916 163 0 144.008 0 120.581V0Z" fill="url(#paint0_linear_1_158)"/>
<ellipse cx="71.6407" cy="112.548" rx="18.002" ry="13.2872" fill="white"/>
<rect x="84.3281" y="36.5122" width="5.31487" height="78.6944" rx="2.65744" fill="white"/>
<path d="M89.7942 42.7868C90.0968 43.6436 90.5945 44.4728 91.2251 45.2763C92.2033 46.5227 93.51 47.7179 94.9319 48.8707C96.0452 49.7734 97.2343 50.654 98.3959 51.5144C98.7176 51.7526 99.0372 51.9893 99.3525 52.2245C100.809 53.311 102.174 54.3651 103.248 55.3992C109.551 61.4685 109.423 67.9547 109.377 70.269C109.373 70.484 109.369 70.663 109.372 70.8024V92.4034C109.372 92.8297 109.289 93.2077 109.02 93.482C108.752 93.7564 108.267 93.9593 107.387 93.9593C106.531 93.9593 106.011 93.4493 105.689 92.8337C105.369 92.2193 105.26 91.5214 105.231 91.1983C105.436 83.2432 102.88 77.8682 99.588 74.3847C96.3537 70.962 92.4171 69.3734 89.7156 68.9501L89.7942 42.7868Z" fill="white" stroke="white" stroke-width="0.317108"/>
<defs>
<linearGradient id="paint0_linear_1_158" x1="81.5" y1="0" x2="81.5" y2="163" gradientUnits="userSpaceOnUse">
<stop stop-color="#7DE8FF"/>
<stop offset="0.411458" stop-color="#08AEF5"/>
<stop offset="1" stop-color="#05394F"/>
</linearGradient>
</defs>
</svg>
